<?xml version="1.0" standalone="no"?>
<!DOCTYPE svg PUBLIC "-//W3C//DTD SVG 20010904//EN"
 "http://www.w3.org/TR/2001/REC-SVG-20010904/DTD/svg10.dtd">
<svg version="1.0" xmlns="http://www.w3.org/2000/svg"
 width="152.000000pt" height="80.000000pt" viewBox="0 0 152.000000 80.000000"
 preserveAspectRatio="xMidYMid meet">

<g transform="translate(0.000000,80.000000) scale(0.100000,-0.100000)"
fill="#000000" stroke="none">
<path d="M733 713 c9 -2 25 -2 35 0 9 3 1 5 -18 5 -19 0 -27 -2 -17 -5z"/>
<path d="M481 684 c0 -11 3 -14 6 -6 3 7 2 16 -1 19 -3 4 -6 -2 -5 -13z"/>
<path d="M738 673 c12 -2 30 -2 40 0 9 3 -1 5 -23 4 -22 0 -30 -2 -17 -4z"/>
<path d="M489 603 l-34 -38 38 34 c34 33 42 41 34 41 -2 0 -19 -17 -38 -37z"/>
<path d="M1010 605 c13 -14 26 -25 28 -25 3 0 -5 11 -18 25 -13 14 -26 25 -28
25 -3 0 5 -11 18 -25z"/>
<path d="M275 460 c-3 -5 -1 -18 4 -27 9 -16 10 -14 11 10 0 28 -5 34 -15 17z"/>
<path d="M273 333 c-7 -2 -13 -9 -13 -14 0 -6 4 -8 9 -5 5 4 12 0 14 -6 3 -7
6 -3 6 10 1 12 0 22 -1 21 -2 0 -9 -3 -15 -6z"/>
<path d="M388 323 c-5 -18 -2 -23 13 -23 11 0 19 7 19 18 0 14 -2 14 -9 3 -7
-11 -10 -10 -13 5 -3 17 -4 17 -10 -3z"/>
<path d="M691 325 c-1 -17 -3 -18 -11 -5 -7 12 -10 12 -10 1 0 -7 -6 -11 -13
-8 -8 3 -20 1 -28 -4 -9 -6 9 -9 51 -9 43 0 60 3 50 9 -8 6 -17 8 -21 5 -4 -2
-10 4 -12 13 -4 15 -5 15 -6 -2z"/>
<path d="M1081 324 c0 -11 3 -14 6 -6 3 7 2 16 -1 19 -3 4 -6 -2 -5 -13z"/>
<path d="M1102 320 c0 -14 2 -19 5 -12 2 6 2 18 0 25 -3 6 -5 1 -5 -13z"/>
<path d="M66 322 c-3 -5 1 -9 9 -9 8 0 15 4 15 9 0 4 -4 8 -9 8 -6 0 -12 -4
-15 -8z"/>
<path d="M111 314 c0 -11 3 -14 6 -6 3 7 2 16 -1 19 -3 4 -6 -2 -5 -13z"/>
<path d="M137 324 c-9 -10 2 -24 19 -24 8 0 14 8 13 18 0 10 -3 12 -6 5 -2 -7
-9 -13 -14 -13 -6 0 -7 5 -4 10 7 11 2 13 -8 4z"/>
<path d="M190 316 c0 -9 5 -16 10 -16 6 0 10 4 10 9 0 6 -4 13 -10 16 -5 3
-10 -1 -10 -9z"/>
<path d="M301 314 c0 -11 3 -14 6 -6 3 7 2 16 -1 19 -3 4 -6 -2 -5 -13z"/>
<path d="M324 319 c1 -7 12 -14 24 -15 16 -3 20 0 15 11 -4 11 -9 13 -18 5 -9
-8 -15 -8 -18 0 -3 6 -5 6 -3 -1z"/>
<path d="M437 317 c-5 -13 -1 -17 18 -17 18 0 23 4 18 16 -4 11 -8 12 -13 4
-6 -9 -9 -9 -12 1 -3 9 -6 8 -11 -4z"/>
<path d="M496 315 c-3 -8 -1 -15 4 -15 6 0 10 7 10 15 0 8 -2 15 -4 15 -2 0
-6 -7 -10 -15z"/>
<path d="M906 322 c-3 -5 1 -9 9 -9 8 0 12 4 9 9 -3 4 -7 8 -9 8 -2 0 -6 -4
-9 -8z"/>
<path d="M950 318 c0 -23 55 -25 64 -3 3 8 1 15 -4 15 -6 0 -10 -6 -10 -12 0
-10 -3 -9 -9 1 -6 10 -10 10 -16 1 -6 -9 -10 -9 -16 1 -7 11 -9 10 -9 -3z"/>
<path d="M1120 315 c0 -8 4 -15 8 -15 5 0 9 7 9 15 0 8 -4 15 -9 15 -4 0 -8
-7 -8 -15z"/>
<path d="M1385 320 c-3 -5 -1 -10 4 -10 6 0 11 5 11 10 0 6 -2 10 -4 10 -3 0
-8 -4 -11 -10z"/>
<path d="M755 310 c-3 -5 -1 -10 4 -10 6 0 11 5 11 10 0 6 -2 10 -4 10 -3 0
-8 -4 -11 -10z"/>
<path d="M490 185 c13 -14 26 -25 28 -25 3 0 -5 11 -18 25 -13 14 -26 25 -28
25 -3 0 5 -11 18 -25z"/>
<path d="M1004 178 l-19 -23 23 19 c21 18 27 26 19 26 -2 0 -12 -10 -23 -22z"/>
<path d="M979 123 c-13 -16 -12 -17 4 -4 9 7 17 15 17 17 0 8 -8 3 -21 -13z"/>
</g>
</svg>
